<svg aria-hidden="true" style="position: absolute; width: 0; height: 0; overflow: hidden;" version="1.1" xmlns="http://www.w3.org/2000/svg" xmlns:xlink="http://www.w3.org/1999/xlink">
    <defs>
        <symbol id="EyeClosed" viewBox="0 0 32 32">
            <path stroke-linejoin="round" stroke-linecap="round" stroke-miterlimit="4" stroke-width="2.6667" d="M20 24l-0.963-4.333"></path>
            <path stroke-linejoin="round" stroke-linecap="round" stroke-miterlimit="4" stroke-width="2.6667" d="M2.667 10.667c2.045 5.489 7.241 9.328 13.333 9.328s11.289-3.839 13.301-9.23l0.032-0.098"></path>
            <path stroke-linejoin="round" stroke-linecap="round" stroke-miterlimit="4" stroke-width="2.6667" d="M26.667 20l-2.301-2.733"></path>
            <path stroke-linejoin="round" stroke-linecap="round" stroke-miterlimit="4" stroke-width="2.6667" d="M5.333 20l2.301-2.733"></path>
            <path stroke-linejoin="round" stroke-linecap="round" stroke-miterlimit="4" stroke-width="2.6667" d="M12 24l0.963-4.333"></path>
        </symbol>
        <symbol id="EyeOpen" viewBox="0 0 32 32">
            <path stroke-linejoin="round" stroke-linecap="round" stroke-miterlimit="4" stroke-width="2.6667" d="M2.749 16.464c-0.053-0.138-0.083-0.297-0.083-0.464s0.031-0.326 0.086-0.473l-0.003 0.009c2.206-5.249 7.306-8.868 13.251-8.868s11.044 3.619 13.215 8.774l0.035 0.094c0.053 0.138 0.083 0.297 0.083 0.464s-0.031 0.326-0.086 0.473l0.003-0.009c-2.206 5.249-7.306 8.868-13.251 8.868s-11.044-3.619-13.215-8.774l-0.035-0.094"></path>
            <path stroke-linejoin="round" stroke-linecap="round" stroke-miterlimit="4" stroke-width="2.6667" d="M20 16c0 2.209-1.791 4-4 4s-4-1.791-4-4c0-2.209 1.791-4 4-4s4 1.791 4 4z"></path>
        </symbol>
        <symbol id="shield" viewBox="0 0 32 32">
            <path stroke-linejoin="round" stroke-linecap="round" stroke-miterlimit="4" stroke-width="2.6667" d="M26.667 17.333c0 6.667-4.667 10-10.213 11.933-0.128 0.045-0.275 0.071-0.428 0.071-0.167 0-0.327-0.031-0.475-0.087l0.009 0.003c-5.56-1.92-10.227-5.253-10.227-11.92v-9.333c0-0.736 0.597-1.333 1.333-1.333v0c2.667 0 6-1.6 8.32-3.627 0.271-0.232 0.626-0.374 1.013-0.374s0.743 0.142 1.015 0.376l-0.002-0.002c2.333 2.040 5.653 3.627 8.32 3.627 0.736 0 1.333 0.597 1.333 1.333v0z"></path>
            <path stroke-linejoin="round" stroke-linecap="round" stroke-miterlimit="4" stroke-width="2.6667" d="M8.501 25.213c1.165-3.070 4.081-5.212 7.499-5.212 3.419 0 6.336 2.144 7.482 5.161l0.018 0.055"></path>
            <path stroke-linejoin="round" stroke-linecap="round" stroke-miterlimit="4" stroke-width="2.6667" d="M21.333 14.667c0 2.946-2.388 5.333-5.333 5.333s-5.333-2.388-5.333-5.333c0-2.946 2.388-5.333 5.333-5.333s5.333 2.388 5.333 5.333z"></path>
        </symbol>
        <symbol id="clock" viewBox="0 0 24 24">
            <path d="M23 12c0-3.037-1.232-5.789-3.222-7.778s-4.741-3.222-7.778-3.222-5.789 1.232-7.778 3.222-3.222 4.741-3.222 7.778 1.232 5.789 3.222 7.778 4.741 3.222 7.778 3.222 5.789-1.232 7.778-3.222 3.222-4.741 3.222-7.778zM21 12c0 2.486-1.006 4.734-2.636 6.364s-3.878 2.636-6.364 2.636-4.734-1.006-6.364-2.636-2.636-3.878-2.636-6.364 1.006-4.734 2.636-6.364 3.878-2.636 6.364-2.636 4.734 1.006 6.364 2.636 2.636 3.878 2.636 6.364zM11 6v6c0 0.389 0.222 0.727 0.553 0.894l4 2c0.494 0.247 1.095 0.047 1.342-0.447s0.047-1.095-0.447-1.342l-3.448-1.723v-5.382c0-0.552-0.448-1-1-1s-1 0.448-1 1z"></path>
        </symbol>
        <symbol id="settings" viewBox="0 0 24 24">
            <path stroke-linejoin="round" stroke-linecap="round" stroke-miterlimit="4" stroke-width="1.25" d="M9.671 4.136c0.117-1.194 1.115-2.119 2.329-2.119s2.213 0.925 2.329 2.109l0.001 0.010c0.109 1.201 1.111 2.134 2.331 2.134 0.359 0 0.698-0.081 1.002-0.225l-0.014 0.006c0.284-0.132 0.617-0.209 0.967-0.209 1.292 0 2.34 1.048 2.34 2.34 0 0.781-0.383 1.473-0.971 1.898l-0.007 0.005c-0.606 0.429-0.996 1.127-0.996 1.915s0.39 1.487 0.989 1.911l0.007 0.005c0.595 0.43 0.977 1.121 0.977 1.902 0 1.292-1.048 2.34-2.34 2.34-0.351 0-0.683-0.077-0.982-0.215l0.014 0.006c-0.29-0.138-0.629-0.219-0.988-0.219-1.22 0-2.222 0.933-2.33 2.125l-0.001 0.009c-0.117 1.194-1.115 2.119-2.329 2.119s-2.213-0.925-2.329-2.109l-0.001-0.010c-0.109-1.201-1.111-2.134-2.331-2.134-0.359 0-0.699 0.081-1.003 0.225l0.014-0.006c-0.284 0.132-0.617 0.209-0.967 0.209-1.292 0-2.34-1.048-2.34-2.34 0-0.781 0.383-1.473 0.97-1.898l0.007-0.005c0.606-0.429 0.996-1.127 0.996-1.915s-0.39-1.487-0.989-1.911l-0.007-0.005c-0.594-0.43-0.976-1.121-0.976-1.901 0-1.292 1.048-2.34 2.34-2.34 0.35 0 0.681 0.077 0.979 0.214l-0.015-0.006c0.29 0.138 0.629 0.219 0.988 0.219 1.22 0 2.222-0.933 2.33-2.125l0.001-0.009"></path>
            <path stroke-linejoin="round" stroke-linecap="round" stroke-miterlimit="4" stroke-width="1.25" d="M15 12c0 1.657-1.343 3-3 3s-3-1.343-3-3c0-1.657 1.343-3 3-3s3 1.343 3 3z"></path>
        </symbol>
    </defs>
</svg>
